<?xml version="1.0" encoding="utf-8"?>
<!-- Generator: Adobe Illustrator 15.0.0, SVG Export Plug-In . SVG Version: 6.00 Build 0)  -->
<!DOCTYPE svg PUBLIC "-//W3C//DTD SVG 1.1//EN" "http://www.w3.org/Graphics/SVG/1.1/DTD/svg11.dtd">
<svg version="1.1" id="Layer_1" xmlns="http://www.w3.org/2000/svg" xmlns:xlink="http://www.w3.org/1999/xlink" x="0px" y="0px"
	 width="86px" height="86px" viewBox="0 0 86 86" enable-background="new 0 0 86 86" xml:space="preserve">
<g>
	<g>
		<linearGradient id="SVGID_1_" gradientUnits="userSpaceOnUse" x1="43.3413" y1="3.0078" x2="42.6392" y2="85.1496">
			<stop  offset="0" style="stop-color:#D1CDB4"/>
			<stop  offset="1" style="stop-color:#FFFFFF"/>
		</linearGradient>
		<path fill="url(#SVGID_1_)" d="M0,77c0,4.971,4.029,9,9,9h68c4.971,0,9-4.029,9-9V9c0-4.971-4.029-9-9-9H9C4.029,0,0,4.03,0,9V77z
			"/>
	</g>
	<linearGradient id="SVGID_2_" gradientUnits="userSpaceOnUse" x1="42.7935" y1="73.9766" x2="43.1129" y2="26.2308">
		<stop  offset="0" style="stop-color:#E6E6E6"/>
		<stop  offset="1" style="stop-color:#FFFFFF"/>
	</linearGradient>
	<polygon fill="url(#SVGID_2_)" stroke="#CBCBCB" stroke-miterlimit="10" points="19.127,10.5 19.127,75.5 66.873,75.5 
		66.873,28.33 49.042,10.5 	"/>
	<polyline fill="none" stroke="#CBCBCB" stroke-miterlimit="10" points="49.042,10.5 49.042,29.217 66.873,29.217 	"/>
	<g>
		<rect x="23.867" y="53.096" fill="#FFFFFF" stroke="#CBCBCB" stroke-miterlimit="10" width="38.265" height="4.908"/>
		<rect x="23.867" y="39.439" fill="#E6E7E8" stroke="#CBCBCB" stroke-miterlimit="10" width="38.265" height="8.745"/>
		<rect x="23.867" y="48.184" fill="#FFFFFF" stroke="#CBCBCB" stroke-miterlimit="10" width="38.265" height="4.912"/>
		<rect x="45.316" y="50.258" fill="#E6E7E8" width="14.214" height="0.762"/>
		<rect x="45.316" y="55.168" fill="#E6E7E8" width="14.214" height="0.762"/>
		<g>
			<path fill="#929497" d="M31.81,42.241c-0.43,0-0.765,0.141-1.004,0.418c-0.239,0.275-0.358,0.654-0.358,1.137
				c0,0.476,0.125,0.859,0.374,1.148s0.585,0.436,1.011,0.436c0.544,0,0.953-0.271,1.228-0.809l0.43,0.215
				c-0.159,0.334-0.385,0.59-0.674,0.764s-0.626,0.262-1.009,0.262c-0.392,0-0.729-0.082-1.016-0.242
				c-0.287-0.164-0.504-0.396-0.653-0.699c-0.15-0.303-0.226-0.66-0.226-1.074c0-0.619,0.168-1.105,0.501-1.457
				c0.336-0.35,0.799-0.527,1.391-0.527c0.415,0,0.761,0.082,1.037,0.244c0.278,0.162,0.482,0.402,0.614,0.721l-0.501,0.164
				c-0.089-0.225-0.234-0.398-0.434-0.52C32.321,42.301,32.084,42.241,31.81,42.241z"/>
			<path fill="#929497" d="M36.923,45.756l-0.443-1.137h-1.771l-0.446,1.137h-0.547l1.586-3.886H35.9l1.562,3.886H36.923z
				 M35.595,42.268l-0.025,0.076c-0.046,0.152-0.114,0.348-0.204,0.588l-0.496,1.277h1.453l-0.499-1.283
				c-0.052-0.127-0.104-0.27-0.154-0.43L35.595,42.268z"/>
		</g>
		<g>
			<path fill="#929497" d="M48.602,45.811v-4h3.034v0.443h-2.492v1.281h2.321v0.438h-2.321v1.394h2.608v0.443H48.602z"/>
			<path fill="#929497" d="M55.073,45.811l-2.141-3.406l0.015,0.275l0.014,0.475v2.656h-0.482v-4h0.63l2.164,3.429
				c-0.023-0.371-0.035-0.639-0.035-0.807v-2.623h0.489v4H55.073z"/>
		</g>
		<rect x="26.456" y="50.258" fill="#E6E7E8" width="14.214" height="0.762"/>
		<rect x="26.456" y="55.168" fill="#E6E7E8" width="14.214" height="0.762"/>
		<rect x="23.867" y="60.916" fill="#EFBDBD" width="38.265" height="4.91"/>
		<rect x="23.867" y="65.826" fill="#DEEFBD" width="38.265" height="4.912"/>
		<line fill="#F0F0F0" stroke="#CBCBCB" stroke-miterlimit="10" x1="43" y1="39.439" x2="43" y2="58.004"/>
	</g>
	<rect x="23.867" y="25.025" fill="#CBCBCB" width="21.449" height="0.762"/>
	<rect x="23.867" y="28.628" fill="#CBCBCB" width="21.449" height="0.762"/>
	<rect x="23.867" y="32.232" fill="#CBCBCB" width="21.449" height="0.762"/>
	<rect x="23.867" y="35.835" fill="#CBCBCB" width="38.826" height="0.762"/>
</g>
</svg>
