<?xml version="1.0" encoding="utf-8"?>
<!-- Generator: Adobe Illustrator 15.0.0, SVG Export Plug-In . SVG Version: 6.00 Build 0)  -->
<!DOCTYPE svg PUBLIC "-//W3C//DTD SVG 1.1//EN" "http://www.w3.org/Graphics/SVG/1.1/DTD/svg11.dtd">
<svg version="1.1" id="Layer_1" xmlns="http://www.w3.org/2000/svg" xmlns:xlink="http://www.w3.org/1999/xlink" x="0px" y="0px"
	 width="86px" height="86px" viewBox="0 0 86 86" enable-background="new 0 0 86 86" xml:space="preserve">
<g>
	<g>
		<linearGradient id="SVGID_1_" gradientUnits="userSpaceOnUse" x1="43.3413" y1="3.0073" x2="42.6392" y2="85.1495">
			<stop  offset="0" style="stop-color:#D0CCB3"/>
			<stop  offset="1" style="stop-color:#FFFFFF"/>
		</linearGradient>
		<path fill="url(#SVGID_1_)" d="M0,77c0,4.971,4.029,9,9,9h68c4.971,0,9-4.029,9-9V9c0-4.971-4.029-9-9-9H9C4.029,0,0,4.029,0,9V77
			z"/>
	</g>
	<g>
		<g>
			<path fill="#A66628" d="M41.786,51.657l24.58,2.849l1.376,9.244l-20.891,9.352l-26.543-5.854c0,0-1.816-1.421-2.258-4.39
				c-0.441-2.962,0.984-4.155,0.984-4.155L41.786,51.657z"/>
			
				<linearGradient id="SVGID_2_" gradientUnits="userSpaceOnUse" x1="20.9727" y1="48.5605" x2="57.4932" y2="48.5605" gradientTransform="matrix(0.9891 -0.1473 0.1473 0.9891 -9.117 22.8154)">
				<stop  offset="0" style="stop-color:#FBB461"/>
				<stop  offset="1" style="stop-color:#E78324"/>
			</linearGradient>
			<path fill="url(#SVGID_2_)" d="M55.346,65.352L22.173,57.73l-3.138,0.972c0,0-1.426,1.193-0.984,4.155
				c0.441,2.969,2.258,4.39,2.258,4.39l26.534,5.854l1.487-0.664l-1.496-1.007L55.346,65.352z"/>
			<path fill="#F4E4D0" d="M66.725,54.512c0,0-20.125,8.087-20.857,9.145c-0.734,1.06-1.246,2.05-0.875,4.55
				c0.26,1.744,1.492,3.224,2.5,3.612c1.008,0.385,20.452-9.108,20.452-9.108L66.725,54.512z"/>
		</g>
		<g>
			<linearGradient id="SVGID_3_" gradientUnits="userSpaceOnUse" x1="19.8457" y1="70.5225" x2="66.0664" y2="70.5225">
				<stop  offset="0" style="stop-color:#FFFFFF"/>
				<stop  offset="1" style="stop-color:#F4E5D2"/>
			</linearGradient>
			<rect x="19.846" y="67.145" fill="url(#SVGID_3_)" width="46.221" height="6.756"/>
			<rect x="18.957" y="65.546" fill="#588A3E" width="48.176" height="1.599"/>
			<rect x="18.957" y="73.9" fill="#588A3E" width="48.176" height="1.6"/>
		</g>
		
			<linearGradient id="SVGID_4_" gradientUnits="userSpaceOnUse" x1="37.7578" y1="50.6592" x2="38.0879" y2="54.4348" gradientTransform="matrix(0.9696 0.0055 -0.0364 0.8433 7.8569 9.845)">
			<stop  offset="0" style="stop-color:#E24C4F"/>
			<stop  offset="1" style="stop-color:#C43329"/>
		</linearGradient>
		<polygon fill="url(#SVGID_4_)" points="61.965,54.105 23.928,58.254 23.389,53.329 61.428,49.183 		"/>
		
			<linearGradient id="SVGID_5_" gradientUnits="userSpaceOnUse" x1="40.3105" y1="39" x2="40.0825" y2="43.5979" gradientTransform="matrix(0.9548 -0.1265 0.1144 0.8638 -1.942 19.0037)">
			<stop  offset="0" style="stop-color:#187F91"/>
			<stop  offset="1" style="stop-color:#256674"/>
		</linearGradient>
		<polygon fill="url(#SVGID_5_)" points="61.037,49.514 22,54.685 21.226,48.85 60.264,43.679 		"/>
		<g>
			<path fill="#9E1F22" d="M44.214,22.585l-24.58,2.848l-1.376,9.242l20.891,9.353l26.543-5.854c0,0,1.816-1.423,2.258-4.39
				c0.441-2.963-0.984-4.156-0.984-4.156L44.214,22.585z"/>
			
				<linearGradient id="SVGID_6_" gradientUnits="userSpaceOnUse" x1="240.6289" y1="51.8779" x2="277.1494" y2="51.8779" gradientTransform="matrix(-0.9891 -0.1473 -0.1473 0.9891 312.8669 22.8154)">
				<stop  offset="0" style="stop-color:#E24C4F"/>
				<stop  offset="1" style="stop-color:#C43329"/>
			</linearGradient>
			<path fill="url(#SVGID_6_)" d="M30.654,36.278l33.173-7.622l3.138,0.972c0,0,1.426,1.193,0.984,4.156
				c-0.441,2.967-2.258,4.39-2.258,4.39l-26.533,5.853l-1.488-0.664l1.496-1.007L30.654,36.278z"/>
		</g>
		<path fill="#F4E4D0" d="M19.275,25.438c0,0,20.125,8.085,20.857,9.145c0.734,1.06,1.246,2.049,0.875,4.549
			c-0.26,1.744-1.492,3.224-2.5,3.612c-1.008,0.386-20.452-9.107-20.452-9.107L19.275,25.438z"/>
		
			<linearGradient id="SVGID_7_" gradientUnits="userSpaceOnUse" x1="29.0859" y1="22.2676" x2="28.5001" y2="26.2301" gradientTransform="matrix(0.9081 -0.0152 -0.0152 0.9975 13.3102 2.7785)">
			<stop  offset="0" style="stop-color:#AD549F"/>
			<stop  offset="1" style="stop-color:#9D2666"/>
		</linearGradient>
		<polygon fill="url(#SVGID_7_)" points="56.406,30.955 21.226,25.119 22.188,19.313 57.369,25.149 		"/>
		
			<rect x="25.125" y="17.58" transform="matrix(0.9865 0.1636 -0.1636 0.9865 3.937 -6.752)" fill="#178C45" width="35.66" height="5.886"/>
		<g>
			
				<linearGradient id="SVGID_8_" gradientUnits="userSpaceOnUse" x1="18.4668" y1="15.6343" x2="64.6855" y2="15.6343" gradientTransform="matrix(0.9994 -0.036 0.036 0.9994 0.4731 2.216)">
				<stop  offset="0" style="stop-color:#FFFFFF"/>
				<stop  offset="1" style="stop-color:#F4E5D2"/>
			</linearGradient>
			<polygon fill="url(#SVGID_8_)" points="65.805,18.889 19.613,20.553 19.371,13.801 65.562,12.139 			"/>
			
				<rect x="18.437" y="11.367" transform="matrix(0.9994 -0.036 0.036 0.9994 -0.4104 1.5388)" fill="#0AB3BD" width="48.177" height="1.601"/>
			
				<rect x="18.739" y="19.717" transform="matrix(0.9994 -0.036 0.036 0.9994 -0.7105 1.5542)" fill="#2ABBB2" width="48.177" height="1.602"/>
		</g>
		<g>
			<rect x="18.678" y="38.251" fill="#C6C72F" width="48.176" height="1.6"/>
			<rect x="18.678" y="46.606" fill="#A5B339" width="48.176" height="1.599"/>
			<linearGradient id="SVGID_9_" gradientUnits="userSpaceOnUse" x1="19.5664" y1="43.2285" x2="65.7861" y2="43.2285">
				<stop  offset="0" style="stop-color:#FFFFFF"/>
				<stop  offset="1" style="stop-color:#F4E5D2"/>
			</linearGradient>
			<rect x="19.566" y="39.851" fill="url(#SVGID_9_)" width="46.22" height="6.756"/>
		</g>
	</g>
</g>
</svg>
