<?xml version="1.0" encoding="utf-8"?>
<!-- Generator: Adobe Illustrator 15.0.0, SVG Export Plug-In . SVG Version: 6.00 Build 0)  -->
<!DOCTYPE svg PUBLIC "-//W3C//DTD SVG 1.1//EN" "http://www.w3.org/Graphics/SVG/1.1/DTD/svg11.dtd">
<svg version="1.1" id="Layer_1" xmlns="http://www.w3.org/2000/svg" xmlns:xlink="http://www.w3.org/1999/xlink" x="0px" y="0px"
	 width="86px" height="86px" viewBox="0 0 86 86" enable-background="new 0 0 86 86" xml:space="preserve">
<g>
	<g>
		<linearGradient id="SVGID_1_" gradientUnits="userSpaceOnUse" x1="43.3413" y1="3.0073" x2="42.6392" y2="85.1495">
			<stop  offset="0" style="stop-color:#D1CDB4"/>
			<stop  offset="1" style="stop-color:#FFFFFF"/>
		</linearGradient>
		<path fill="url(#SVGID_1_)" d="M0,77c0,4.971,4.029,9,9,9h68c4.971,0,9-4.029,9-9V9c0-4.971-4.029-9-9-9H9C4.029,0,0,4.029,0,9V77
			z"/>
	</g>
	<path fill="#C10201" d="M41.562,13.376H11.27c-2.585,0-4.682,2.095-4.682,4.682v16.293c0,2.586,2.097,4.682,4.682,4.682h1.178
		v9.716l9.716-9.716h19.398c2.585,0,4.681-2.096,4.681-4.682V18.058C46.242,15.471,44.146,13.376,41.562,13.376z"/>
	<g>
		<path fill="#FFFFFF" d="M21.673,21.888c-1.248,0-2.219,0.401-2.912,1.204s-1.04,1.902-1.04,3.301c0,1.382,0.361,2.492,1.084,3.334
			c0.724,0.838,1.7,1.259,2.933,1.259c1.579,0,2.766-0.782,3.561-2.345l1.248,0.625c-0.464,0.97-1.116,1.709-1.956,2.216
			c-0.84,0.506-1.815,0.761-2.925,0.761c-1.136,0-2.119-0.237-2.948-0.708c-0.829-0.474-1.461-1.147-1.896-2.026
			c-0.435-0.876-0.652-1.915-0.652-3.115c0-1.798,0.485-3.206,1.457-4.225c0.971-1.019,2.314-1.528,4.032-1.528
			c1.2,0,2.203,0.235,3.009,0.704c0.805,0.471,1.396,1.166,1.776,2.088l-1.449,0.48c-0.261-0.656-0.681-1.157-1.26-1.504
			C23.155,22.062,22.468,21.888,21.673,21.888z"/>
		<path fill="#FFFFFF" d="M36.508,32.082l-1.288-3.298h-5.138l-1.296,3.298h-1.584l4.601-11.274h1.736l4.528,11.274H36.508z
			 M32.65,21.96l-0.071,0.224c-0.134,0.443-0.331,1.011-0.593,1.705l-1.439,3.704h4.216l-1.448-3.721
			c-0.148-0.368-0.298-0.783-0.447-1.248L32.65,21.96z"/>
	</g>
	<linearGradient id="SVGID_2_" gradientUnits="userSpaceOnUse" x1="55.0635" y1="58.4102" x2="55.0571" y2="30.3277">
		<stop  offset="0" style="stop-color:#E6E6E6"/>
		<stop  offset="1" style="stop-color:#FFFFFF"/>
	</linearGradient>
	<path fill="url(#SVGID_2_)" stroke="#CBCBCB" stroke-miterlimit="10" d="M36.589,29.246h36.942c3.152,0,5.709,2.556,5.709,5.71
		v19.872c0,3.152-2.557,5.709-5.709,5.709h-1.436v11.85l-11.85-11.85H36.589c-3.155,0-5.709-2.557-5.709-5.709V34.956
		C30.88,31.802,33.434,29.246,36.589,29.246z"/>
	<g>
		<g>
			<path fill="#808184" d="M37.319,48.379h-0.836l-2.423-5.938h0.847l1.645,4.182l0.354,1.049l0.354-1.049l1.636-4.182h0.848
				L37.319,48.379z"/>
			<path fill="#808184" d="M44.059,48.379l-0.679-1.736h-2.707l-0.683,1.736h-0.834l2.423-5.938h0.915l2.385,5.938H44.059z
				 M42.025,43.048l-0.038,0.119c-0.069,0.232-0.172,0.531-0.312,0.897l-0.758,1.951h2.222l-0.764-1.961
				c-0.078-0.193-0.157-0.413-0.236-0.657L42.025,43.048z"/>
			<path fill="#808184" d="M45.604,48.379v-5.938h0.807v5.281h3v0.656H45.604z"/>
			<path fill="#808184" d="M50.404,48.379v-5.938h4.506v0.657h-3.699v1.905h3.447v0.648h-3.447v2.07h3.873v0.656H50.404z"/>
			<path fill="#808184" d="M60.014,48.379l-3.178-5.058l0.021,0.408l0.021,0.706v3.943h-0.717v-5.938h0.936l3.211,5.092
				c-0.033-0.551-0.049-0.949-0.049-1.195v-3.896h0.725v5.938H60.014z"/>
			<path fill="#808184" d="M65.027,43.009c-0.66,0-1.17,0.214-1.537,0.635c-0.363,0.423-0.547,1.003-0.547,1.739
				c0,0.729,0.191,1.313,0.572,1.756c0.381,0.441,0.896,0.664,1.545,0.664c0.832,0,1.457-0.41,1.875-1.236l0.656,0.33
				c-0.244,0.512-0.588,0.9-1.029,1.166c-0.441,0.268-0.955,0.402-1.541,0.402c-0.598,0-1.115-0.125-1.553-0.375
				c-0.438-0.248-0.77-0.602-0.998-1.064c-0.23-0.463-0.344-1.01-0.344-1.643c0-0.945,0.256-1.689,0.768-2.228
				c0.512-0.534,1.219-0.804,2.123-0.804c0.633,0,1.16,0.124,1.586,0.371c0.424,0.247,0.736,0.614,0.934,1.102l-0.762,0.254
				c-0.139-0.349-0.359-0.612-0.662-0.795C65.807,43.1,65.445,43.009,65.027,43.009z"/>
			<path fill="#808184" d="M68.719,48.379v-5.938h0.805v5.938H68.719z"/>
			<path fill="#808184" d="M75.238,48.379l-0.678-1.736h-2.707l-0.682,1.736h-0.836l2.424-5.938h0.916l2.385,5.938H75.238z
				 M73.207,43.048l-0.037,0.119c-0.07,0.232-0.176,0.531-0.313,0.897L72.1,46.016h2.219l-0.762-1.961
				c-0.078-0.193-0.156-0.413-0.236-0.657L73.207,43.048z M73.48,41.93l-1.307-0.915v-0.121h0.873l0.914,0.952v0.084H73.48z"/>
		</g>
	</g>
</g>
</svg>
